<svg width="944" height="425" viewBox="0 0 944 425" fill="none" xmlns="http://www.w3.org/2000/svg">
  <path
    d="M601 125.154V66.8465C601 66.1759 601.336 65.55 601.895 65.1795L659.895 26.7325C660.565 26.2885 661.435 26.2885 662.105 26.7325L720.105 65.1795C720.664 65.55 721 66.1759 721 66.8465V125.154C721 125.824 720.664 126.45 720.105 126.821L662.105 165.267C661.435 165.711 660.565 165.711 659.895 165.267L601.895 126.821C601.336 126.45 601 125.824 601 125.154Z"
    stroke="#D0EFB1"
    stroke-opacity="0.08"
    style="mix-blend-mode:color-dodge"
  />
  <path
    d="M571 139.193V52.8066C571 51.4655 571.672 50.2136 572.79 49.4726L658.79 -7.53501C660.13 -8.42298 661.87 -8.42298 663.21 -7.53501L749.21 49.4726C750.328 50.2136 751 51.4655 751 52.8066V139.193C751 140.535 750.328 141.786 749.21 142.527L663.21 199.535C661.87 200.423 660.13 200.423 658.79 199.535L572.79 142.527C571.672 141.786 571 140.535 571 139.193Z"
    stroke="#D0EFB114" 
    stroke-width="1.5"
    style="mix-blend-mode:color-dodge"
  />
  <path
    d="M541 152.16V39.8404C541 37.1582 542.344 34.6544 544.58 33.1724L656.58 -41.07C659.259 -42.846 662.741 -42.846 665.42 -41.07L777.42 33.1724C779.656 34.6544 781 37.1582 781 39.8404V152.16C781 154.842 779.656 157.346 777.42 158.828L665.42 233.07C662.741 234.846 659.259 234.846 656.58 233.07L544.58 158.828C542.344 157.346 541 154.842 541 152.16Z"
    stroke="#D0EFB1"
    stroke-opacity="0.08"
    stroke-width="2"
    style="mix-blend-mode:color-dodge"
  />
  <path
    d="M505 168.885V22.9402C505 19.4549 506.747 16.2016 509.652 14.2759L655.182 -82.1928C658.663 -84.5005 663.187 -84.5005 666.668 -82.1928L812.198 14.2759C815.103 16.2016 816.85 19.4549 816.85 22.9402V168.885C816.85 172.37 815.103 175.623 812.198 177.549L666.668 274.018C663.187 276.326 658.663 276.326 655.182 274.018L509.652 177.549C506.747 175.623 505 172.37 505 168.885Z"
    stroke="#D0EFB114" 
    stroke-width="2.59875"
    style="mix-blend-mode:color-dodge"
  />
  <path
    d="M454 192.149V-0.899231C454 -5.50938 456.31 -9.81274 460.153 -12.3599L652.653 -139.964C657.258 -143.017 663.242 -143.017 667.847 -139.964L860.347 -12.3599C864.19 -9.81274 866.5 -5.50938 866.5 -0.899231V192.149C866.5 196.759 864.19 201.063 860.347 203.61L667.847 331.214C663.242 334.266 657.258 334.266 652.653 331.214L460.153 203.61C456.31 201.063 454 196.759 454 192.149Z"
    stroke="#D0EFB1"
    stroke-opacity="0.08"
    stroke-width="3.4375"
    style="mix-blend-mode:color-dodge"
  />
  <path
    d="M379 227.749V-35.4989C379 -41.7855 382.15 -47.6537 387.39 -51.1272L649.89 -225.133C656.17 -229.295 664.33 -229.295 670.61 -225.133L933.11 -51.1272C938.349 -47.6537 941.5 -41.7855 941.5 -35.4989V227.749C941.5 234.036 938.349 239.904 933.11 243.377L670.61 417.383C664.33 421.545 656.17 421.545 649.89 417.383L387.39 243.377C382.15 239.904 379 234.036 379 227.749Z"
    stroke="#D0EFB114" 
    stroke-width="4.6875"
    style="mix-blend-mode:color-dodge"
  />
</svg>
