<svg width="44" height="44" viewBox="0 0 44 44" fill="none" xmlns="http://www.w3.org/2000/svg">
<rect width="44" height="44" rx="22" fill="#2D2E2D"/>
<path d="M14.1082 24.3083C13.931 25.47 14.7233 26.2763 15.6933 26.6782C19.4123 28.2188 24.5876 28.2188 28.3065 26.6782C29.2766 26.2763 30.0688 25.47 29.8917 24.3083C29.7828 23.5944 29.2443 22.9999 28.8453 22.4194C28.3227 21.6497 28.2708 20.8102 28.2707 19.917C28.2707 16.4652 25.4632 13.667 21.9999 13.667C18.5367 13.667 15.7292 16.4652 15.7292 19.917C15.7291 20.8102 15.6772 21.6497 15.1546 22.4194C14.7556 22.9999 14.2171 23.5944 14.1082 24.3083Z" stroke="#FDFDFD" stroke-linecap="round" stroke-linejoin="round"/>
<path d="M18.6667 27.833C19.0488 29.2707 20.3963 30.333 22.0001 30.333C23.6038 30.333 24.9513 29.2707 25.3334 27.833" stroke="#FDFDFD" stroke-linecap="round" stroke-linejoin="round"/>
</svg>
