<svg width="44" height="44" viewBox="0 0 44 44" fill="none" xmlns="http://www.w3.org/2000/svg">
<rect width="44" height="44" rx="22" fill="#2D2E2D"/>
<path d="M14.0833 16.9997L18.6666 15.333L23.2499 16.9997L21.1666 18.2497V19.4997C21.1666 19.4997 20.611 19.083 18.6666 19.083C16.7221 19.083 16.1666 19.4997 16.1666 19.4997V18.2497L14.0833 16.9997ZM14.0833 16.9997V20.333" stroke="white" stroke-width="1.5" stroke-linecap="round" stroke-linejoin="round"/>
<path d="M21.1667 19.083V19.8237C21.1667 21.2556 20.0475 22.4163 18.6667 22.4163C17.286 22.4163 16.1667 21.2556 16.1667 19.8237V19.083" stroke="white" stroke-width="1.5" stroke-linecap="round" stroke-linejoin="round"/>
<path d="M24.7652 21.1912C24.7652 21.1912 25.1692 20.8971 26.5833 20.8971C27.9975 20.8971 28.4015 21.1912 28.4015 21.1912M24.7652 21.1912V20.3333L23.25 19.5L26.5833 18.25L29.9167 19.5L28.4015 20.3333V21.1912M24.7652 21.1912V21.4318C24.7652 22.436 25.5792 23.25 26.5833 23.25C27.5875 23.25 28.4015 22.436 28.4015 21.4318V21.1912" stroke="white" stroke-width="1.5" stroke-linecap="round" stroke-linejoin="round"/>
<path d="M15.6543 25.2717C14.8683 25.7104 12.8075 26.6064 14.0627 27.7274C14.6758 28.275 15.3587 28.6667 16.2172 28.6667H21.1162C21.9748 28.6667 22.6577 28.275 23.2708 27.7274C24.526 26.6064 22.4652 25.7104 21.6792 25.2717C19.8361 24.2428 17.4974 24.2428 15.6543 25.2717Z" stroke="white" stroke-width="1.5" stroke-linecap="round" stroke-linejoin="round"/>
<path d="M25.3333 28.6663H28.4206C29.0645 28.6663 29.5767 28.353 30.0365 27.9149C30.9779 27.0181 29.4323 26.3013 28.8428 25.9503C27.7801 25.3175 26.4976 25.1713 25.3333 25.5114" stroke="white" stroke-width="1.5" stroke-linecap="round" stroke-linejoin="round"/>
</svg>
