<svg width="37" height="36" viewBox="0 0 37 36" fill="none" xmlns="http://www.w3.org/2000/svg">
<path d="M21.8334 14.6668V17.3335C21.8334 19.1744 20.341 20.6668 18.5001 20.6668C16.6591 20.6668 15.1667 19.1744 15.1667 17.3335V14.6668C15.1667 12.8259 16.6591 11.3335 18.5001 11.3335C20.341 11.3335 21.8334 12.8259 21.8334 14.6668Z" stroke="#ABABAB" stroke-width="1.25"/>
<path d="M21.8333 14.6665H19.8333M21.8333 17.3332H19.8333" stroke="#ABABAB" stroke-width="1.25" stroke-linecap="round"/>
<path d="M23.8334 17.3335C23.8334 20.279 21.4456 22.6668 18.5001 22.6668M18.5001 22.6668C15.5546 22.6668 13.1667 20.279 13.1667 17.3335M18.5001 22.6668V24.6668M18.5001 24.6668H20.5001M18.5001 24.6668H16.5001" stroke="#ABABAB" stroke-width="1.25" stroke-linecap="round"/>
</svg>
