<svg width="20" height="20" viewBox="0 0 20 20" fill="none" xmlns="http://www.w3.org/2000/svg">
<path d="M12.5734 0.475098H7.42661C7.25465 0.475098 7.1168 0.623887 7.11308 0.808832C7.00911 6.00745 4.48038 10.9415 0.127923 14.4364C-0.0102608 14.5473 -0.0417421 14.7558 0.0592828 14.9059L3.07054 19.3842C3.17299 19.5367 3.37259 19.571 3.5131 19.4591C6.23455 17.2882 8.42358 14.6692 9.99998 11.7664C11.5764 14.6692 13.7655 17.2882 16.487 19.4591C16.6273 19.571 16.827 19.5367 16.9295 19.3842L19.9408 14.9059C20.0417 14.7558 20.0102 14.5473 19.8722 14.4364C15.5195 10.9415 12.9909 6.00745 12.887 0.808832C12.8832 0.623887 12.7453 0.475098 12.5734 0.475098Z" fill="#FF875B"/>
</svg>
