<svg width="12" height="12" viewBox="0 0 12 12" fill="none" xmlns="http://www.w3.org/2000/svg">
<path d="M9.5 1.62504H3.375C3.05357 1.6156 2.7415 1.73398 2.50719 1.95423C2.27289 2.17448 2.13545 2.47863 2.125 2.80004V9.00004C2.13804 9.37715 2.30013 9.7337 2.57571 9.99147C2.85129 10.2492 3.21785 10.3872 3.595 10.375H9.5C9.59905 10.3737 9.69369 10.3338 9.76373 10.2638C9.83378 10.1937 9.8737 10.0991 9.875 10V2.00004C9.8737 1.90098 9.83378 1.80635 9.76373 1.7363C9.69369 1.66625 9.59905 1.62633 9.5 1.62504ZM9.125 9.62504H3.595C3.41669 9.63741 3.24076 9.57856 3.10578 9.46139C2.97081 9.34423 2.88781 9.17831 2.875 9.00004C2.88781 8.82176 2.97081 8.65584 3.10578 8.53868C3.24076 8.42151 3.41669 8.36266 3.595 8.37504H9.125V9.62504ZM9.125 7.62504H3.595C3.34328 7.62531 3.09568 7.68893 2.875 7.81004V2.80004C2.88645 2.67798 2.94514 2.56523 3.03855 2.48583C3.13196 2.40643 3.25269 2.36667 3.375 2.37504H9.125V7.62504Z" fill="#D9D9D9"/>
<path d="M4.375 4.375H7.625C7.72446 4.375 7.81984 4.33549 7.89016 4.26516C7.96049 4.19484 8 4.09946 8 4C8 3.90054 7.96049 3.80516 7.89016 3.73483C7.81984 3.66451 7.72446 3.625 7.625 3.625H4.375C4.27554 3.625 4.18016 3.66451 4.10984 3.73483C4.03951 3.80516 4 3.90054 4 4C4 4.09946 4.03951 4.19484 4.10984 4.26516C4.18016 4.33549 4.27554 4.375 4.375 4.375ZM4.375 6.125H7.625C7.72446 6.125 7.81984 6.08549 7.89016 6.01516C7.96049 5.94484 8 5.84946 8 5.75C8 5.65054 7.96049 5.55516 7.89016 5.48484C7.81984 5.41451 7.72446 5.375 7.625 5.375H4.375C4.27554 5.375 4.18016 5.41451 4.10984 5.48484C4.03951 5.55516 4 5.65054 4 5.75C4 5.84946 4.03951 5.94484 4.10984 6.01516C4.18016 6.08549 4.27554 6.125 4.375 6.125Z" fill="#D9D9D9"/>
</svg>
