<svg width="12" height="12" viewBox="0 0 12 12" fill="none" xmlns="http://www.w3.org/2000/svg">
<path d="M3.75005 1.75C2.97205 1.7735 2.50855 1.86 2.18755 2.181C1.74805 2.621 1.74805 3.3285 1.74805 4.744V7.997C1.74805 9.413 1.74805 10.1205 2.18755 10.5605C2.62655 11 3.33405 11 4.74805 11H7.24805C8.66255 11 9.36955 11 9.80855 10.56C10.2485 10.1205 10.2485 9.413 10.2485 7.997V4.744C10.2485 3.329 10.2485 2.621 9.80855 2.181C9.48805 1.86 9.02405 1.7735 8.24605 1.75" stroke="#D9D9D9" stroke-linecap="round" stroke-linejoin="round"/>
<path d="M3.25 5H5.25M6.75 5.5C6.75 5.5 7 5.5 7.25 6C7.25 6 8.044 4.75 8.75 4.5M3.25 8H5.25M6.75 8.5C6.75 8.5 7 8.5 7.25 9C7.25 9 8.044 7.75 8.75 7.5M3.748 1.875C3.748 1.392 4.14 1 4.623 1H7.373C7.60506 1 7.82762 1.09219 7.99172 1.25628C8.15581 1.42038 8.248 1.64294 8.248 1.875C8.248 2.10706 8.15581 2.32962 7.99172 2.49372C7.82762 2.65781 7.60506 2.75 7.373 2.75H4.623C4.39094 2.75 4.16838 2.65781 4.00428 2.49372C3.84019 2.32962 3.748 2.10706 3.748 1.875Z" stroke="#D9D9D9" stroke-linecap="round" stroke-linejoin="round"/>
</svg>
