<svg width="560" height="593" viewBox="0 0 560 593" fill="none" xmlns="http://www.w3.org/2000/svg">
<path d="M217 357.154V298.846C217 298.176 217.336 297.55 217.895 297.179L275.895 258.732C276.565 258.289 277.435 258.289 278.105 258.732L336.105 297.179C336.664 297.55 337 298.176 337 298.846V357.154C337 357.824 336.664 358.45 336.105 358.821L278.105 397.267C277.435 397.711 276.565 397.711 275.895 397.267L217.895 358.821C217.336 358.45 217 357.824 217 357.154Z" stroke="#D0EFB1" stroke-opacity="0.08" style="mix-blend-mode:color-dodge"/>
<path d="M187 371.193V284.807C187 283.465 187.672 282.214 188.79 281.473L274.79 224.465C276.13 223.577 277.87 223.577 279.21 224.465L365.21 281.473C366.328 282.214 367 283.465 367 284.807V371.193C367 372.535 366.328 373.786 365.21 374.527L279.21 431.535C277.87 432.423 276.13 432.423 274.79 431.535L188.79 374.527C187.672 373.786 187 372.535 187 371.193Z" stroke="#40403E" stroke-width="1.5" style="mix-blend-mode:color-dodge"/>
<path d="M157 384.16V271.84C157 269.158 158.344 266.654 160.58 265.172L272.58 190.93C275.259 189.154 278.741 189.154 281.42 190.93L393.42 265.172C395.656 266.654 397 269.158 397 271.84V384.16C397 386.842 395.656 389.346 393.42 390.828L281.42 465.07C278.741 466.846 275.259 466.846 272.58 465.07L160.58 390.828C158.344 389.346 157 386.842 157 384.16Z" stroke="#D0EFB1" stroke-opacity="0.08" stroke-width="2" style="mix-blend-mode:color-dodge"/>
<path d="M121 400.885V254.94C121 251.455 122.747 248.202 125.652 246.276L271.182 149.807C274.663 147.5 279.187 147.5 282.668 149.807L428.198 246.276C431.103 248.202 432.85 251.455 432.85 254.94V400.885C432.85 404.37 431.103 407.623 428.198 409.549L282.668 506.018C279.187 508.326 274.663 508.326 271.182 506.018L125.652 409.549C122.747 407.623 121 404.37 121 400.885Z" stroke="#40403E" stroke-width="2.59875" style="mix-blend-mode:color-dodge"/>
<path d="M70 424.149V231.101C70 226.491 72.3104 222.187 76.153 219.64L268.653 92.0359C273.258 88.9835 279.242 88.9835 283.847 92.0359L476.347 219.64C480.19 222.187 482.5 226.491 482.5 231.101V424.149C482.5 428.759 480.19 433.063 476.347 435.61L283.847 563.214C279.242 566.266 273.258 566.266 268.653 563.214L76.153 435.61C72.3104 433.063 70 428.759 70 424.149Z" stroke="#D0EFB1" stroke-opacity="0.08" stroke-width="3.4375" style="mix-blend-mode:color-dodge"/>
<path d="M-5 459.749V196.501C-5 190.214 -1.8495 184.346 3.39039 180.873L265.89 6.86717C272.17 2.70478 280.33 2.70478 286.61 6.86717L549.11 180.873C554.349 184.346 557.5 190.214 557.5 196.501V459.749C557.5 466.036 554.349 471.904 549.11 475.377L286.61 649.383C280.33 653.545 272.17 653.545 265.89 649.383L3.39039 475.377C-1.8495 471.904 -5 466.036 -5 459.749Z" stroke="#40403E" stroke-width="4.6875" style="mix-blend-mode:color-dodge"/>
</svg>
