<svg width="913" height="657" viewBox="0 0 913 657" fill="none" xmlns="http://www.w3.org/2000/svg">
<path d="M571 371.193V284.807C571 283.465 571.672 282.214 572.79 281.473L658.79 224.465C660.13 223.577 661.87 223.577 663.21 224.465L749.21 281.473C750.328 282.214 751 283.465 751 284.807V371.193C751 372.535 750.328 373.786 749.21 374.527L663.21 431.535C661.87 432.423 660.13 432.423 658.79 431.535L572.79 374.527C571.672 373.786 571 372.535 571 371.193Z" stroke="#A8C789" stroke-opacity="0.17" stroke-width="1.5" style="mix-blend-mode:color-dodge"/>
<path d="M541 384.16V271.84C541 269.158 542.344 266.654 544.58 265.172L656.58 190.93C659.259 189.154 662.741 189.154 665.42 190.93L777.42 265.172C779.656 266.654 781 269.158 781 271.84V384.16C781 386.842 779.656 389.346 777.42 390.828L665.42 465.07C662.741 466.846 659.259 466.846 656.58 465.07L544.58 390.828C542.344 389.346 541 386.842 541 384.16Z" stroke="#40403E" stroke-width="2" style="mix-blend-mode:color-dodge"/>
<path d="M505 400.885V254.94C505 251.455 506.747 248.202 509.652 246.276L655.182 149.807C658.663 147.5 663.187 147.5 666.668 149.807L812.198 246.276C815.103 248.202 816.85 251.455 816.85 254.94V400.885C816.85 404.37 815.103 407.623 812.198 409.549L666.668 506.018C663.187 508.326 658.663 508.326 655.182 506.018L509.652 409.549C506.747 407.623 505 404.37 505 400.885Z" stroke="#A8C789" stroke-opacity="0.17" stroke-width="2.59875" style="mix-blend-mode:color-dodge"/>
<path d="M454 424.149V231.101C454 226.491 456.31 222.187 460.153 219.64L652.653 92.0359C657.258 88.9835 663.242 88.9835 667.847 92.0359L860.347 219.64C864.19 222.187 866.5 226.491 866.5 231.101V424.149C866.5 428.759 864.19 433.063 860.347 435.61L667.847 563.214C663.242 566.266 657.258 566.266 652.653 563.214L460.153 435.61C456.31 433.063 454 428.759 454 424.149Z" stroke="#40403E" stroke-width="3.4375" style="mix-blend-mode:color-dodge"/>
<path d="M379 459.749V196.501C379 190.214 382.15 184.346 387.39 180.873L649.89 6.86717C656.17 2.70478 664.33 2.70478 670.61 6.86717L933.11 180.873C938.349 184.346 941.5 190.214 941.5 196.501V459.749C941.5 466.036 938.349 471.904 933.11 475.377L670.61 649.383C664.33 653.545 656.17 653.545 649.89 649.383L387.39 475.377C382.15 471.904 379 466.036 379 459.749Z" stroke="#A8C789" stroke-opacity="0.17" stroke-width="4.6875" style="mix-blend-mode:color-dodge"/>
</svg>
