<svg width="20" height="20" viewBox="0 0 20 20" fill="none" xmlns="http://www.w3.org/2000/svg">
<path d="M2.10819 12.3081C1.93098 13.4697 2.72325 14.2761 3.69329 14.6779C7.41226 16.2186 12.5876 16.2186 16.3065 14.6779C17.2766 14.2761 18.0688 13.4697 17.8917 12.3081C17.7828 11.5942 17.2443 10.9997 16.8453 10.4192C16.3227 9.6495 16.2708 8.80992 16.2707 7.91675C16.2707 4.46496 13.4632 1.66675 9.99992 1.66675C6.53669 1.66675 3.72919 4.46496 3.72919 7.91675C3.72911 8.80992 3.67719 9.6495 3.15459 10.4192C2.75562 10.9997 2.21709 11.5942 2.10819 12.3081Z" stroke="#FDFDFD" stroke-linecap="round" stroke-linejoin="round"/>
<path d="M6.66675 15.8333C7.04882 17.2709 8.39633 18.3333 10.0001 18.3333C11.6038 18.3333 12.9513 17.2709 13.3334 15.8333" stroke="#FDFDFD" stroke-linecap="round" stroke-linejoin="round"/>
</svg>
