<svg width="24" height="24" viewBox="0 0 24 24" fill="none" xmlns="http://www.w3.org/2000/svg">
<path d="M6.5 9H5.5M10.5 9H9.5M6.5 6H5.5M10.5 6H9.5" stroke="white" stroke-width="1.5" stroke-linecap="round"/>
<path d="M18.5 15H17.5M18.5 11H17.5" stroke="white" stroke-width="1.5" stroke-linecap="round"/>
<path d="M14 8V22H18C19.8856 22 20.8284 22 21.4142 21.4142C22 20.8284 22 19.8856 22 18V12C22 10.1144 22 9.17157 21.4142 8.58579C20.8284 8 19.8856 8 18 8H14ZM14 8C14 5.17157 14 3.75736 13.1213 2.87868C12.2426 2 10.8284 2 8 2C5.17157 2 3.75736 2 2.87868 2.87868C2 3.75736 2 5.17157 2 8V10" stroke="white" stroke-width="1.5" stroke-linecap="round" stroke-linejoin="round"/>
<path d="M8.02527 13.9554C8.02527 15.0592 7.12987 15.9539 6.02533 15.9539C4.9208 15.9539 4.02539 15.0592 4.02539 13.9554C4.02539 12.8517 4.9208 11.957 6.02533 11.957C7.12987 11.957 8.02527 12.8517 8.02527 13.9554Z" stroke="white" stroke-width="1.5" stroke-linecap="round"/>
<path d="M2.07079 20.2098C3.12914 18.5817 4.80983 17.9715 6.02588 17.9727C7.24194 17.974 8.87337 18.5817 9.93172 20.2098C10.0001 20.3151 10.019 20.4447 9.95725 20.5541C9.70974 20.9927 8.94125 21.863 8.38619 21.922C7.74843 21.9898 6.08011 21.9993 6.02717 21.9996C5.97419 21.9993 4.25437 21.9898 3.61632 21.922C3.06126 21.863 2.29277 20.9927 2.04526 20.5541C1.98351 20.4447 2.00236 20.3151 2.07079 20.2098Z" stroke="white" stroke-width="1.5" stroke-linecap="round"/>
</svg>
