<svg width="20" height="21" viewBox="0 0 20 21" fill="none" xmlns="http://www.w3.org/2000/svg">
<path d="M9.98767 12.9296L12.6888 16.0007C13.6896 17.1384 14.19 17.7074 14.7138 17.5689C15.2375 17.4304 15.4172 16.6817 15.7763 15.1842L17.7689 6.8776C18.3222 4.57129 18.5988 3.41814 17.9838 2.84935C17.369 2.28058 16.3032 2.70373 14.1716 3.55004L4.28214 7.47643C2.57728 8.1533 1.72485 8.49177 1.67073 9.07335C1.66519 9.13285 1.6651 9.19277 1.67046 9.25227C1.72279 9.8341 2.57418 10.1754 4.27696 10.8579C5.04849 11.1672 5.43426 11.3219 5.71084 11.618C5.74194 11.6513 5.77184 11.6858 5.80049 11.7214C6.05532 12.038 6.16408 12.4536 6.38157 13.2847L6.78861 14.8402C7.00026 15.6489 7.10608 16.0534 7.38324 16.1085C7.6604 16.1636 7.90171 15.8283 8.38434 15.1576L9.98767 12.9296ZM9.98767 12.9296L9.72284 12.6536C9.42142 12.3394 9.27076 12.1824 9.27076 11.9873C9.27076 11.7921 9.42142 11.635 9.72284 11.3209L12.7003 8.21776" stroke="#FDFDFD" stroke-width="1.5" stroke-linecap="round" stroke-linejoin="round"/>
</svg>
