<svg width="16" height="19" viewBox="0 0 16 19" fill="none" xmlns="http://www.w3.org/2000/svg">
<path d="M5.33366 17.4228V14.721C5.33366 14.2224 5.48691 13.7891 5.73399 13.3977C5.90349 13.1291 5.78741 12.7481 5.48124 12.6639C2.94528 11.9668 1.16699 10.8459 1.16699 7.12782C1.16699 6.16119 1.4837 5.2524 2.04042 4.46144C2.17897 4.26459 2.24823 4.16617 2.26489 4.07702C2.28154 3.98788 2.25259 3.87154 2.19468 3.63887C1.95898 2.69187 1.97425 1.68626 2.32801 0.779627C2.32801 0.779627 3.05901 0.541452 4.72281 1.58084C5.10268 1.81816 5.29262 1.93682 5.45991 1.96336C5.62716 1.9899 5.85083 1.9343 6.29808 1.82311C6.90974 1.67106 7.53999 1.58944 8.25033 1.58944C8.96066 1.58944 9.59091 1.67106 10.2026 1.82311C10.6498 1.9343 10.8735 1.9899 11.0407 1.96336C11.2081 1.93682 11.398 1.81816 11.7778 1.58084C13.4417 0.541452 14.1727 0.779627 14.1727 0.779627C14.5264 1.68626 14.5417 2.69187 14.306 3.63887C14.2481 3.87154 14.2191 3.98788 14.2357 4.07702C14.2524 4.16616 14.3217 4.26459 14.4602 4.46144C15.0169 5.2524 15.3337 6.16119 15.3337 7.12782C15.3337 10.8459 13.5554 11.9668 11.0194 12.6639C10.7132 12.7481 10.5972 13.1291 10.7667 13.3977C11.0137 13.7891 11.167 14.2224 11.167 14.721V17.4228" stroke="#FDFDFD" stroke-width="1.25" stroke-linecap="round" stroke-linejoin="round"/>
</svg>
