<svg width="12" height="12" viewBox="0 0 12 12" fill="none" xmlns="http://www.w3.org/2000/svg">
<g clip-path="url(#clip0_848_1754)">
<path d="M9.99967 1.33325H1.99967C1.82286 1.33325 1.65329 1.40349 1.52827 1.52851C1.40325 1.65354 1.33301 1.82311 1.33301 1.99992V9.99992C1.33301 10.1767 1.40325 10.3463 1.52827 10.4713C1.65329 10.5963 1.82286 10.6666 1.99967 10.6666H9.99967C10.1765 10.6666 10.3461 10.5963 10.4711 10.4713C10.5961 10.3463 10.6663 10.1767 10.6663 9.99992V1.99992C10.6663 1.82311 10.5961 1.65354 10.4711 1.52851C10.3461 1.40349 10.1765 1.33325 9.99967 1.33325ZM9.99967 9.99992H1.99967V1.99992H9.99967V9.99992Z" fill="#D9D9D9"/>
<path d="M4.86709 7.68999C4.92788 7.7294 4.99764 7.75282 5.0699 7.75807C5.14216 7.76331 5.21458 7.75021 5.28042 7.71999L8.19042 6.38665C8.26646 6.35235 8.33097 6.29684 8.37623 6.22677C8.42149 6.1567 8.44556 6.07506 8.44556 5.99165C8.44556 5.90824 8.42149 5.8266 8.37623 5.75653C8.33097 5.68647 8.26646 5.63095 8.19042 5.59665L5.28042 4.26332C5.2137 4.23283 5.14033 4.21978 5.06719 4.22539C4.99404 4.231 4.92352 4.25509 4.86223 4.29539C4.80094 4.3357 4.75088 4.39091 4.71675 4.45584C4.68262 4.52078 4.66553 4.59331 4.66709 4.66665V7.33332C4.6682 7.4047 4.68706 7.47468 4.72198 7.53695C4.7569 7.59922 4.80677 7.65181 4.86709 7.68999ZM5.20042 4.82332L7.77042 5.99999L5.20042 7.16999V4.82332Z" fill="#D9D9D9"/>
<path d="M2.66699 2.33325H3.33366V3.33325H2.66699V2.33325Z" fill="#D9D9D9"/>
<path d="M4.66699 2.33325H5.33366V3.33325H4.66699V2.33325Z" fill="#D9D9D9"/>
<path d="M6.66699 2.33325H7.33366V3.33325H6.66699V2.33325Z" fill="#D9D9D9"/>
<path d="M8.66699 2.33325H9.33366V3.33325H8.66699V2.33325Z" fill="#D9D9D9"/>
<path d="M2.66699 8.66675H3.33366V9.66675H2.66699V8.66675Z" fill="#D9D9D9"/>
<path d="M4.66699 8.66675H5.33366V9.66675H4.66699V8.66675Z" fill="#D9D9D9"/>
<path d="M6.66699 8.66675H7.33366V9.66675H6.66699V8.66675Z" fill="#D9D9D9"/>
<path d="M8.66699 8.66675H9.33366V9.66675H8.66699V8.66675Z" fill="#D9D9D9"/>
</g>
<defs>
<clipPath id="clip0_848_1754">
<rect width="12" height="12" fill="white"/>
</clipPath>
</defs>
</svg>
